<?xml version="1.0" encoding="utf-8"?>
<svg xmlns="http://www.w3.org/2000/svg" viewBox="547.3075 180.0507 177.0612 58.9736" width="177.061px" height="58.9736px" preserveAspectRatio="none"><g transform="matrix(0.1, 0, 0, -0.095328, -877.58166889, -1343.96667648)" fill="#000000" stroke="none" style="transform-origin: 1513.42px 1551.77px;" id="object-0"><path d="M2120 1800 c-12 -26 -19 -53 -16 -59 4 -6 2 -11 -4 -11 -11 0 -29 -37 -82 -170 -30 -75 -70 -130 -95 -130 -25 0 -12 44 37 127 28 46 50 87 50 91 0 4 15 39 34 77 l34 70 -26 12 c-15 7 -32 12 -38 13 -9 0 -124 -238 -147 -305 -18 -56 -77 -120 -77 -84 0 6 18 47 40 90 22 44 40 81 40 83 0 12 -63 17 -70 6 -5 -8 -9 -7 -13 4 -28 73 -207 -109 -207 -211 0 -32 26 -63 52 -63 9 0 31 16 49 35 32 34 33 34 44 12 16 -33 67 -35 92 -4 19 24 20 24 31 6 17 -27 61 -24 93 7 23 22 27 23 26 7 -2 -13 6 -19 25 -21 24 -3 28 2 42 50 17 57 32 86 40 77 3 -3 8 -23 12 -45 3 -21 11 -45 16 -51 15 -19 53 -16 72 6 17 19 18 19 38 -1 37 -37 106 -7 134 58 19 46 8 74 -30 75 -31 2 -31 2 -3 6 22 4 27 8 21 21 -14 33 -16 70 -4 77 18 11 24 -3 10 -20 -10 -12 -10 -19 -2 -27 15 -15 36 3 53 44 12 28 11 32 -10 49 -33 27 -48 24 -92 -19 -45 -45 -48 -68 -18 -137 17 -38 19 -52 10 -71 -6 -13 -18 -24 -27 -24 -14 0 -16 8 -10 50 4 28 5 50 2 50 -2 0 -21 -23 -41 -52 -33 -46 -39 -50 -50 -35 -6 9 -14 15 -16 13 -2 -3 -4 13 -4 34 0 33 6 42 53 79 53 43 62 65 32 84 -13 7 -29 -3 -73 -48 -31 -32 -57 -54 -57 -51 0 4 25 60 55 123 30 64 55 119 55 123 0 5 -13 13 -29 18 -27 10 -29 8 -51 -38z m-350 -243 c0 -8 -17 -40 -38 -73 -66 -101 -102 -115 -60 -22 34 73 98 135 98 95z" style="fill: rgb(255, 255, 255);"/><path d="M1291 1703 c-17 -36 -34 -64 -37 -60 -3 3 4 23 15 46 21 40 21 40 2 51 -31 16 -36 13 -59 -35 -26 -54 -26 -55 -7 -55 10 0 4 -21 -24 -83 -21 -45 -44 -100 -51 -122 -13 -42 -75 -115 -97 -115 -28 0 -10 47 51 139 72 108 101 170 87 184 -6 6 -6 19 0 35 11 29 13 26 -29 40 l-33 11 -41 -87 c-22 -48 -57 -129 -78 -181 -36 -88 -81 -153 -96 -138 -4 3 13 47 36 97 24 49 40 93 37 97 -4 3 -22 7 -41 7 -19 1 -38 5 -42 9 -20 20 -58 4 -110 -45 -30 -29 -65 -53 -76 -55 -31 -5 -36 -13 -9 -13 17 0 22 -4 17 -16 -3 -9 -6 -18 -6 -20 0 -2 -6 -4 -13 -4 -9 0 -11 -15 -7 -57 4 -49 9 -59 32 -73 27 -14 28 -14 72 29 24 24 50 41 58 38 9 -4 7 -6 -4 -6 -21 -1 -22 -5 -8 -32 16 -28 64 -25 88 6 l20 26 26 -26 c31 -31 56 -27 101 16 35 32 45 36 45 14 0 -20 37 -38 64 -31 12 3 37 20 55 37 18 17 33 29 34 27 30 -59 63 -63 105 -13 l29 36 7 -25 c4 -17 16 -28 33 -32 23 -6 33 -1 70 40 23 26 63 88 88 138 43 86 45 92 29 109 -24 26 -31 24 -39 -13 -8 -39 -79 -185 -102 -210 -19 -21 -35 -15 -26 10 3 9 21 52 41 96 35 76 36 79 17 92 -10 8 -24 14 -29 14 -6 -1 -29 -39 -50 -85 -42 -91 -88 -155 -99 -138 -4 6 14 52 39 103 24 51 43 95 40 97 -2 3 -19 6 -36 6 -29 2 -32 -2 -66 -78 -34 -78 -95 -155 -121 -155 -18 0 -16 30 5 61 9 15 38 58 63 95 59 87 131 231 120 238 -4 3 -20 10 -34 15 -24 10 -27 7 -56 -56z m36 -9 c-3 -3 -12 -4 -19 -1 -8 3 -5 6 6 6 11 1 17 -2 13 -5z m-187 -71 c0 -5 -16 -35 -36 -68 -19 -33 -34 -55 -32 -50 20 66 68 150 68 118z m113 -72 c-15 -28 -29 -48 -31 -47 -5 6 42 96 51 96 4 0 -4 -22 -20 -49z m-373 -68 c-1 -23 -99 -163 -114 -163 -24 0 20 103 61 144 24 25 53 35 53 19z" style="fill: rgb(255, 255, 255);"/><path d="M950 1720 c0 -5 14 -10 30 -10 17 0 30 5 30 10 0 6 -13 10 -30 10 -16 0 -30 -4 -30 -10z" style="fill: rgb(255, 255, 255);"/><path d="M823 1713 c20 -2 54 -2 75 0 20 2 3 4 -38 4 -41 0 -58 -2 -37 -4z" style="fill: rgb(255, 255, 255);"/><path d="M1500 1699 c0 -8 24 -10 81 -6 45 4 84 9 87 12 3 3 -34 5 -81 5 -58 0 -87 -4 -87 -11z" style="fill: rgb(255, 255, 255);"/><path d="M1680 1680 c0 -5 11 -10 24 -10 14 0 28 5 31 10 4 6 -7 10 -24 10 -17 0 -31 -4 -31 -10z" style="fill: rgb(255, 255, 255);"/><path d="M1755 1680 c4 -6 11 -8 16 -5 14 9 11 15 -7 15 -8 0 -12 -5 -9 -10z" style="fill: rgb(255, 255, 255);"/><path d="M1800 1680 c0 -5 11 -10 24 -10 14 0 28 5 31 10 4 6 -7 10 -24 10 -17 0 -31 -4 -31 -10z" style="fill: rgb(255, 255, 255);"/><path d="M1573 1663 c9 -2 25 -2 35 0 9 3 1 5 -18 5 -19 0 -27 -2 -17 -5z" style="fill: rgb(255, 255, 255);"/><path d="M1489 1623 c-13 -16 -12 -17 4 -4 16 13 21 21 13 21 -2 0 -10 -8 -17 -17z" style="fill: rgb(255, 255, 255);"/><path d="M900 1610 c0 -5 -49 -11 -112 -13 -62 -2 -41 -2 47 -1 198 4 193 3 200 15 4 5 -23 9 -64 9 -39 0 -71 -4 -71 -10z" style="fill: rgb(255, 255, 255);"/><path d="M633 1413 c9 -2 23 -2 30 0 6 3 -1 5 -18 5 -16 0 -22 -2 -12 -5z" style="fill: rgb(255, 255, 255);"/><path d="M1775 1329 c-272 -22 -613 -78 -600 -99 7 -11 46 -7 210 19 72 11 204 27 295 36 222 21 434 46 439 51 7 7 -227 2 -344 -7z" style="fill: rgb(255, 255, 255);"/><path d="M1238 1293 c7 -3 16 -2 19 1 4 3 -2 6 -13 5 -11 0 -14 -3 -6 -6z" style="fill: rgb(255, 255, 255);"/></g></svg>