<svg id="Layer_1" data-name="Layer 1" xmlns="http://www.w3.org/2000/svg" width="333.5" height="63.89" viewBox="0 0 333.5 63.89"><title>Amazon Pay logo - Brandlogos.net</title><path d="M236.57,373.08c0,2.55.06,4.68-1.22,7a5.33,5.33,0,0,1-4.55,3c-2.51,0-4-1.92-4-4.76,0-5.58,5-6.6,9.75-6.6v1.42Zm6.61,16a1.35,1.35,0,0,1-1.55.16,15.9,15.9,0,0,1-3.76-4.37c-3.6,3.67-6.15,4.77-10.81,4.77-5.52,0-9.82-3.41-9.82-10.22a11.18,11.18,0,0,1,7-10.72c3.56-1.56,8.53-1.85,12.33-2.28v-.85c0-1.56.12-3.41-.8-4.76a4.37,4.37,0,0,0-3.68-1.7c-2.5,0-4.73,1.28-5.28,3.94a1.38,1.38,0,0,1-1.16,1.21l-6.3-.69a1.16,1.16,0,0,1-1-1.37c1.46-7.71,8.42-10,14.66-10,3.19,0,7.36.85,9.87,3.26,3.19,3,2.9,7,2.9,11.29v10.21c0,3.08,1.28,4.42,2.48,6.08a1.26,1.26,0,0,1,0,1.74c-1.34,1.12-3.72,3.19-5,4.35Z" transform="translate(-217.25 -352.06)" style="fill:#232f3e;fill-rule:evenodd"/><path d="M261.15,388.81h-6.55a1.23,1.23,0,0,1-1.16-1.11V354a1.24,1.24,0,0,1,1.25-1.2h6.11A1.23,1.23,0,0,1,262,354v4.39h.12c1.59-4.25,4.59-6.23,8.63-6.23s6.67,2,8.51,6.23a9.68,9.68,0,0,1,16.68-2.58c2.08,2.83,1.65,7,1.65,10.55V387.6a1.24,1.24,0,0,1-1.27,1.21h-6.55a1.22,1.22,0,0,1-1.16-1.21V369.76a42.88,42.88,0,0,0-.19-6.3c-.49-2.26-2-2.9-3.85-2.9a4.35,4.35,0,0,0-3.92,2.76c-.67,1.71-.62,4.53-.62,6.45V387.6a1.24,1.24,0,0,1-1.26,1.21h-6.57A1.23,1.23,0,0,1,271,387.6V369.76c0-3.76.58-9.29-4.06-9.29s-4.53,5.38-4.53,9.29V387.6a1.24,1.24,0,0,1-1.27,1.21" transform="translate(-217.25 -352.06)" style="fill:#232f3e;fill-rule:evenodd"/><path d="M321.33,380a5.33,5.33,0,0,1-4.54,3c-2.51,0-4-1.92-4-4.75,0-5.59,5-6.6,9.75-6.6v1.42C322.56,375.62,322.6,377.74,321.33,380ZM334.21,383c-1.2-1.65-2.48-3-2.48-6.07V366.67c0-4.33.31-8.31-2.9-11.29-2.51-2.41-6.68-3.26-9.87-3.26-6.24,0-13.21,2.32-14.67,10a1.16,1.16,0,0,0,1,1.38l6.36.68a1.38,1.38,0,0,0,1.16-1.21c.55-2.65,2.77-3.94,5.27-3.94a4.35,4.35,0,0,1,3.68,1.71c.92,1.35.8,3.19.8,4.75v.83c-3.8.42-8.78.71-12.33,2.27a11.14,11.14,0,0,0-7,10.72c0,6.81,4.3,10.22,9.82,10.22,4.64,0,7.21-1.1,10.81-4.77a15.88,15.88,0,0,0,3.76,4.37,1.36,1.36,0,0,0,1.55-.15c1.31-1.16,3.69-3.23,5-4.35C334.75,384.27,334.65,383.56,334.21,383Z" transform="translate(-217.25 -352.06)" style="fill:#232f3e;fill-rule:evenodd"/><path d="M339.76,358.73v-4.81a1.16,1.16,0,0,1,1.22-1.21h21.55a1.2,1.2,0,0,1,1.24,1.21V358c0,.69-.58,1.6-1.62,3L351,377a23.88,23.88,0,0,1,12.29,2.64,2.19,2.19,0,0,1,1.16,1.87v5.15c0,.71-.77,1.53-1.59,1.1a24.82,24.82,0,0,0-22.77,0c-.75.4-1.53-.41-1.53-1.11v-4.91a5.68,5.68,0,0,1,.8-3.3l12.94-18.58H341a1.2,1.2,0,0,1-1.25-1.21" transform="translate(-217.25 -352.06)" style="fill:#232f3e;fill-rule:evenodd"/><path d="M382.33,352.1c9.73,0,15,8.36,15,19,0,10.27-5.8,18.41-15,18.41-9.55,0-14.75-8.36-14.75-18.77s5.26-18.63,14.75-18.63Zm.06,6.87c-4.84,0-5.14,6.58-5.14,10.69s-.06,12.89,5.08,12.89,5.33-7.08,5.33-11.4a31,31,0,0,0-1-8.92A4.12,4.12,0,0,0,382.39,359Z" transform="translate(-217.25 -352.06)" style="fill:#232f3e;fill-rule:evenodd"/><path d="M410,388.74h-6.54a1.22,1.22,0,0,1-1.16-1.21V353.87a1.24,1.24,0,0,1,1.26-1.1h6.08a1.24,1.24,0,0,1,1.16.94v5.15H411c1.83-4.6,4.41-6.8,8.93-6.8a8.62,8.62,0,0,1,7.66,4c1.71,2.69,1.71,7.23,1.71,10.48v21.18a1.25,1.25,0,0,1-1.26,1.06H421.4a1.22,1.22,0,0,1-1.16-1.06V369.41c0-3.68.43-9.07-4.1-9.07a4.31,4.31,0,0,0-3.8,2.69,15,15,0,0,0-1,6.39v18.12a1.25,1.25,0,0,1-1.28,1.21" transform="translate(-217.25 -352.06)" style="fill:#232f3e;fill-rule:evenodd"/><path d="M453.68,357a19.24,19.24,0,0,1,5.57-3.44,16.19,16.19,0,0,1,6-1.16,14,14,0,0,1,6,1.21,12.08,12.08,0,0,1,4.53,3.58,16.49,16.49,0,0,1,2.86,5.71,26.22,26.22,0,0,1,1,7.55,25.85,25.85,0,0,1-1.07,7.7,17.36,17.36,0,0,1-3,5.85,13.35,13.35,0,0,1-4.68,3.75,13.66,13.66,0,0,1-6.11,1.28,15.33,15.33,0,0,1-10.65-4.06v16.11a1.21,1.21,0,0,1-1.38,1.38h-4.06a1.21,1.21,0,0,1-1.38-1.38V354.78a1.22,1.22,0,0,1,1.38-1.38h3a1.45,1.45,0,0,1,1.58,1.38Zm9.69.89a15.35,15.35,0,0,0-9.21,3.16V380.2a14.9,14.9,0,0,0,9.07,3.3q9.49,0,9.49-12.77t-9.35-12.86Z" transform="translate(-217.25 -352.06)" style="fill:#232f3e;fill-rule:evenodd"/><path d="M488.77,359.4l-.52.17a1.81,1.81,0,0,1-.58.1c-.58,0-.89-.41-.89-1.24v-1.84a2.27,2.27,0,0,1,.28-1.34,2.54,2.54,0,0,1,1.1-.73,24.74,24.74,0,0,1,5.43-1.52,36.21,36.21,0,0,1,6.46-.58q6.53,0,9.62,2.68t3.1,8.32v23.49a1.22,1.22,0,0,1-1.38,1.38h-3a1.38,1.38,0,0,1-1.51-1.31l-.35-2.27a18.63,18.63,0,0,1-5.46,3.3,16,16,0,0,1-5.95,1.16,10.82,10.82,0,0,1-7.84-2.79,10.89,10.89,0,0,1,.67-15.47q3.58-3,9.62-3a37,37,0,0,1,8.66,1.16v-4.52q0-3.72-1.65-5.22t-5.78-1.52A35.22,35.22,0,0,0,488.77,359.4Zm8,24.62a14,14,0,0,0,4.74-.89,17.89,17.89,0,0,0,4.74-2.61v-7a34.73,34.73,0,0,0-3.61-.65,28.68,28.68,0,0,0-3.67-.24q-7.78,0-7.77,6a5.37,5.37,0,0,0,1.45,4A5.65,5.65,0,0,0,496.82,384Z" transform="translate(-217.25 -352.06)" style="fill:#232f3e;fill-rule:evenodd"/><path d="M535.14,394.38a16.93,16.93,0,0,1-4.3,6.81,9.52,9.52,0,0,1-6.39,2.06,14.53,14.53,0,0,1-3.92-.48,2,2,0,0,1-1.1-.66,2.27,2.27,0,0,1-.34-1.4v-1.79c0-.87.34-1.31,1-1.31a6.28,6.28,0,0,1,1,.13,9.67,9.67,0,0,0,1.85.14,6.05,6.05,0,0,0,4.06-1.24,10.68,10.68,0,0,0,2.61-4.54l1.31-3.48-13.25-32.75a5.19,5.19,0,0,1-.48-1.65c0-.55.32-.82,1-.82h4.13a2.42,2.42,0,0,1,1.52.34,3.65,3.65,0,0,1,.82,1.52l9.63,26.67,9.29-26.67a3.65,3.65,0,0,1,.82-1.52,2.42,2.42,0,0,1,1.52-.34h3.85c.64,0,1,.28,1,.82a5.26,5.26,0,0,1-.48,1.65l-15.13,38.5" transform="translate(-217.25 -352.06)" style="fill:#232f3e;fill-rule:evenodd"/><path d="M353.77,396.18c1.58,2-1.74,10.33-3.23,14-.45,1.12.52,1.57,1.53.73,6.6-5.53,8.31-17.1,7-18.77s-12.89-3.09-19.93,1.86c-1.09.76-.9,1.81.31,1.67,4-.48,12.8-1.54,14.37.48M348.65,402c-12.31,9.08-30.19,13.93-45.53,13.93q-3.81,0-7.6-.31t-7.54-1q-3.75-.68-7.42-1.7t-7.23-2.38q-3.56-1.36-7-3t-6.67-3.67q-3.25-2-6.3-4.27t-5.88-4.83c-1.16-1-.13-2.46,1.26-1.65a111.93,111.93,0,0,0,55.65,14.76,110.79,110.79,0,0,0,42.45-8.71c2.08-.88,3.83,1.37,1.79,2.9" transform="translate(-217.25 -352.06)" style="fill:#f90;fill-rule:evenodd"/></svg>