<svg xmlns="http://www.w3.org/2000/svg" viewBox="0 0 230.68 50.98"><title>Cash App logo</title><path d="M488.49,506.21a1,1,0,0,1-1.27-.25,7.35,7.35,0,0,0-6.25-3.15c-4.76,0-7.68,3.77-7.68,9.14s3,9.21,7.73,9.21a7.27,7.27,0,0,0,6.26-3.29.95.95,0,0,1,1.25-.28l2.26,1.31a1,1,0,0,1,.35,1.42A11.76,11.76,0,0,1,481,525.55c-7.61,0-12.77-5.52-12.77-13.57s5.16-13.5,12.65-13.5a12,12,0,0,1,10.07,5,1,1,0,0,1-.26,1.39Z" transform="translate(-396.66 -486.51)" style="fill:#00d54b"/><path d="M505.12,524.09V523a6.42,6.42,0,0,1-5.52,2.49c-4,0-6.69-2.16-6.69-5.95,0-4.72,4.21-5.53,6.8-5.89,2.78-.4,5.16-.59,5.16-2.42,0-1.61-1.86-2-3.44-2a11.69,11.69,0,0,0-5.19,1.31.94.94,0,0,1-1.3-.41l-.82-1.7a1,1,0,0,1,.39-1.26,15.62,15.62,0,0,1,7.31-1.83c4.53,0,7.73,1.86,7.73,6.37v12.43a1,1,0,0,1-1,1h-2.49a1,1,0,0,1-1-1Zm-.26-8.6c-.87.66-2.49.88-4.21,1.19s-3.15.77-3.15,2.64,1.24,2.52,3,2.52c2.23,0,4.31-1.24,4.31-4.13Z" transform="translate(-396.66 -486.51)" style="fill:#00d54b"/><path d="M513.64,520.12A1,1,0,0,1,515,520a8.85,8.85,0,0,0,5.53,1.78c2.05,0,3.57-.66,3.57-2.27s-1.39-1.75-4.76-2.34c-3.57-.59-7-1.78-7-5.85,0-4.24,3.66-6,7.83-6a11.71,11.71,0,0,1,7.25,2.38,1,1,0,0,1,.25.29,1,1,0,0,1,.07.75,1,1,0,0,1-.19.33l-1.19,1.4a1,1,0,0,1-1.31.15A8.39,8.39,0,0,0,520,509c-1.75,0-3.29.51-3.29,1.9,0,1.54,2.15,1.83,4.31,2.2,4.61.8,7.54,2.12,7.54,5.95,0,4-3.22,6.51-8.33,6.51a12,12,0,0,1-7.73-2.52,1,1,0,0,1-.13-1.37Z" transform="translate(-396.66 -486.51)" style="fill:#00d54b"/><path d="M531.36,524.1V499.88a1,1,0,0,1,1-1h2.74a1,1,0,0,1,1,1v8.27a7.14,7.14,0,0,1,5.89-2.86c4.06,0,6.44,2.89,6.44,7V524.1a1,1,0,0,1-1,1h-2.74a1,1,0,0,1-1-1V513.39c0-2.05-.66-3.91-3.29-3.91s-4.39,1.75-4.39,4.68v9.95a1,1,0,0,1-1,1h-2.74a.94.94,0,0,1-.68-.28.92.92,0,0,1-.21-.31,1,1,0,0,1-.07-.37Z" transform="translate(-396.66 -486.51)" style="fill:#00d54b"/><path d="M578.51,524.41l-2-5.83h-10l-2,5.83a.95.95,0,0,1-.9.64h-3.22a1,1,0,0,1-.89-1.28l9-24.22a1,1,0,0,1,.89-.59h4.4a1,1,0,0,1,.9.62l9,24.21a1,1,0,0,1,0,.45,1,1,0,0,1-.95.83h-3.4a1,1,0,0,1-.89-.67Zm-6.91-21.23-3.84,11.34h7.54Z" transform="translate(-396.66 -486.51)" style="fill:#00d54b"/><path d="M590.59,506.69v1.5a7,7,0,0,1,5.95-2.89c5.27,0,8.67,4.35,8.67,10.06s-3.4,10.11-8.67,10.11a7,7,0,0,1-5.95-2.93v7.89a1,1,0,0,1-1,1h-2.74a1,1,0,0,1-1-1v-23.8a1,1,0,0,1,1-1h2.74a1,1,0,0,1,.89.62A.94.94,0,0,1,590.59,506.69Zm5,14.74c3.22,0,4.76-2.75,4.76-6.07s-1.57-6-4.76-6-5,2.67-5,6S592.28,521.43,595.56,521.43Z" transform="translate(-396.66 -486.51)" style="fill:#00d54b"/><path d="M612.72,506.69v1.5a7,7,0,0,1,5.95-2.89c5.27,0,8.67,4.35,8.67,10.06s-3.4,10.11-8.67,10.11a7,7,0,0,1-5.95-2.93v7.89a1,1,0,0,1-1,1H609a1,1,0,0,1-1-1v-23.8a1,1,0,0,1,1-1h2.74a.95.95,0,0,1,.69.29.94.94,0,0,1,.26.71Zm5,14.74c3.22,0,4.76-2.75,4.76-6.07s-1.57-6-4.76-6-5,2.67-5,6S614.44,521.43,617.7,521.43Z" transform="translate(-396.66 -486.51)" style="fill:#00d54b"/><path d="M408.41,486.51a11.75,11.75,0,0,0-11.75,11.75v27.48a11.75,11.75,0,0,0,11.75,11.75h27.21a11.75,11.75,0,0,0,11.75-11.75V498.26a11.75,11.75,0,0,0-11.75-11.75Zm21.84,19a10.74,10.74,0,0,0-6.92-2.54c-2.09,0-4.18.69-4.18,2.61,0,1.75,1.86,2.44,4.15,3.28l.68.25c4.53,1.53,8.26,3.4,8.26,7.84,0,4.82-3.74,8.12-9.87,8.49l-.56,2.58a1,1,0,0,1-1,.82h-3.85a1.06,1.06,0,0,1-1-1.28l.6-2.73a14.15,14.15,0,0,1-6.18-3.38,1,1,0,0,1,0-1.49l2.14-2.09a1,1,0,0,1,1.46,0,10.3,10.3,0,0,0,7.28,2.85c2.79,0,4.68-1.18,4.68-3.06,0-1.69-1.55-2.26-4.5-3.34l-1-.36c-3.78-1.35-7.37-3.28-7.37-7.76,0-5.19,4.33-7.72,9.44-8l.54-2.63a1,1,0,0,1,1-.82h3.84a1,1,0,0,1,1,1.25l-.6,2.94a15.81,15.81,0,0,1,5.33,3,1,1,0,0,1,.05,1.5l-2,2A1.06,1.06,0,0,1,430.25,505.47Z" transform="translate(-396.66 -486.51)" style="fill:#00d54b"/></svg>